<svg xmlns="http://www.w3.org/2000/svg" width="628.975" height="758.291" viewBox="218.454 81.885 628.975 758.291"><defs><linearGradient id="b" gradientTransform="rotate(-45 .5 .5)"><stop offset="0%" stop-color="#FF3CAC"/><stop offset="50%" stop-color="#784BA0"/><stop offset="100%" stop-color="#2b86c5"/></linearGradient><clipPath id="a"><path fill="currentColor" d="M761 563q-110 63-150 201t-127 26q-87-112-199-141.5T249.5 528q76.5-91 49-258t125-185q152.5-18 270 68T841 369.5Q871 500 761 563Z"/></clipPath></defs><g clip-path="url(#a)"><path fill="url(#b)" d="M761 563q-110 63-150 201t-127 26q-87-112-199-141.5T249.5 528q76.5-91 49-258t125-185q152.5-18 270 68T841 369.5Q871 500 761 563Z"/></g></svg>